<svg width="474" height="450" viewBox="0 0 474 450" fill="none" xmlns="http://www.w3.org/2000/svg">
<rect width="474" height="450" rx="30" fill="url(#paint0_linear_11302_12336)"/>
<g clip-path="url(#clip0_11302_12336)" filter="url(#filter0_ii_11302_12336)">
<rect x="90" y="78" width="294" height="294" rx="45" fill="#131313"/>
<g filter="url(#filter1_f_11302_12336)">
<path d="M347 105.239V104.886C347 103.999 346.647 103.147 346.02 102.52C345.677 102.177 345.265 101.913 344.81 101.746L340.75 100.25L335.5 98.5L329 97L326 96.5C324.003 96.1672 321.983 96 319.959 96H319.5H316.5H314H311H307H305H303.066C302.704 96 302.356 96.1439 302.1 96.4001C301.275 97.2252 301.797 98.6383 302.961 98.7278L306.5 99H312.5H318L324 99.5L328.338 100.167C329.777 100.389 331.194 100.731 332.575 101.192L332.86 101.287C334.283 101.761 335.656 102.375 336.958 103.119C337.985 103.705 338.964 104.371 339.887 105.109L341 106L342.446 107.157C343.114 107.691 343.984 107.903 344.824 107.735L344.979 107.704C345.633 107.573 346.208 107.188 346.578 106.633C346.853 106.22 347 105.735 347 105.239Z" fill="url(#paint1_linear_11302_12336)"/>
</g>
</g>
<g filter="url(#filter2_f_11302_12336)">
<path d="M98 331.899V331.803C98 330.942 98.1643 330.089 98.4841 329.29L98.9435 328.141C98.9808 328.048 99.0366 327.963 99.1076 327.892L99.5903 327.41C99.9863 327.014 100.652 327.391 100.516 327.934C100.506 327.978 100.5 328.023 100.5 328.068V329.713C100.5 330.899 100.665 332.078 100.991 333.218C101.329 334.4 101.835 335.527 102.495 336.563L103.493 338.132C104.495 339.706 105.665 341.165 106.984 342.484L110 345.5L111.888 347.098C114.948 349.687 118.351 351.841 122 353.5L123.543 354.357C124.496 354.887 124.23 356.324 123.151 356.478C123.051 356.493 122.949 356.494 122.849 356.481L120.7 356.213C119.57 356.071 118.455 355.818 117.374 355.458C115.473 354.824 113.695 353.865 112.122 352.623L108.535 349.791C106.191 347.941 104.136 345.752 102.437 343.297L102.067 342.763C101.026 341.259 100.157 339.643 99.4778 337.945L99.1397 337.099C98.7145 336.036 98.4051 334.93 98.2168 333.801L98.0988 333.093C98.0331 332.698 98 332.299 98 331.899Z" fill="white"/>
</g>
<g filter="url(#filter3_f_11302_12336)">
<path d="M118.5 100.5C131.957 93.279 146.992 89.5 162.265 89.5H312.611C327.288 89.5 341.717 93.2889 354.5 100.5" stroke="url(#paint2_linear_11302_12336)" stroke-width="3" stroke-linecap="round"/>
</g>
<g filter="url(#filter4_f_11302_12336)">
<path d="M354 359L351.449 359.425C350.839 359.527 350.85 360.407 351.462 360.495C351.487 360.498 351.513 360.5 351.538 360.5H353.5H355.5C356.781 360.5 358.009 359.991 358.914 359.086L359.5 358.5L359.661 358.339C360.213 357.787 360.628 357.115 360.875 356.374L360.994 356.018C360.998 356.006 361.001 355.994 361.003 355.982L361.245 354.531C361.269 354.383 361.057 354.33 361.009 354.473C361.003 354.491 360.993 354.507 360.98 354.52L360 355.5L359 356.5C358.016 357.484 356.798 358.201 355.46 358.583L354 359Z" fill="white"/>
</g>
<g filter="url(#filter5_f_11302_12336)">
<path d="M367 330.461V130C367 126.754 365.947 123.596 364 121L361 117L359.5 115C359.298 114.731 359.632 114.387 359.907 114.581L360.5 115L362 116L363.5 117L365.5 118.5L368 120.5L368.872 121.372C369.29 121.79 369.665 122.248 369.993 122.739C370.976 124.213 371.5 125.945 371.5 127.717V329.037C371.5 332.897 370.186 336.642 367.775 339.657L363.5 345L359.5 350L357.5 352.5L356.5 353.75L356 354.375L355.75 354.688L355.625 354.844C355.613 354.859 355.59 354.843 355.6 354.827L355.68 354.688L355.859 354.375L356.219 353.75L356.938 352.5L358.375 350L361.25 345L364.737 338.935C366.22 336.357 367 333.435 367 330.461Z" fill="url(#paint3_linear_11302_12336)"/>
</g>
<g filter="url(#filter6_f_11302_12336)">
<path d="M354 95L351.62 94.3382C349.821 93.8379 350.043 91.2195 351.901 91.0292C352.089 91.0099 352.279 91.0223 352.463 91.0661L356.199 91.9535C357.729 92.317 359.221 92.8277 360.653 93.4785L360.832 93.56C362.935 94.5159 364.903 95.7435 366.687 97.2116L368.05 98.3333C369.658 100.083 370.802 102.208 371.378 104.513L371.5 105L372 109L372.298 111.086C372.544 112.811 370.123 113.466 369.467 111.851C369.427 111.755 369.398 111.654 369.38 111.551L368.982 109.292C368.377 105.857 366.673 102.711 364.128 100.327C362.721 99.0084 361.088 97.9535 359.309 97.212L354 95Z" fill="#D9D9D9"/>
</g>
<path d="M239.954 214.178C261.424 214.178 278.829 196.773 278.829 175.303C278.829 153.833 261.424 136.429 239.954 136.429C218.484 136.429 201.079 153.833 201.079 175.303C201.079 196.773 218.484 214.178 239.954 214.178Z" fill="url(#paint4_linear_11302_12336)"/>
<path d="M240.902 233.183L292.967 285.239L341.379 236.698L342.423 235.651C342.423 235.651 342.429 235.641 342.432 235.634C342.971 234.898 343.285 234.039 343.285 233.128C343.285 232.139 342.922 231.215 342.303 230.45C341.972 230.125 341.635 229.814 341.301 229.513C313.143 203.598 269.478 204.373 242.248 231.831L240.902 233.186V233.183Z" fill="white" fill-opacity="0.8"/>
<path d="M240.909 233.18L187.965 286.13L138.561 236.727L137.498 235.67C137.498 235.67 137.491 235.66 137.488 235.654C136.94 234.911 136.619 234.042 136.619 233.121C136.619 232.119 136.989 231.189 137.621 230.414C137.958 230.086 138.299 229.772 138.642 229.467C167.323 203.293 211.801 204.078 239.541 231.811L240.909 233.18V233.18Z" fill="white"/>
<path d="M292.969 285.239L291.935 286.273C263.176 315.031 216.549 315.031 187.791 286.273L240.91 233.18L292.969 285.239V285.239Z" fill="white"/>
<defs>
<filter id="filter0_ii_11302_12336" x="76" y="66" width="322" height="318" filterUnits="userSpaceOnUse" color-interpolation-filters="sRGB">
<feFlood flood-opacity="0" result="BackgroundImageFix"/>
<feBlend mode="normal" in="SourceGraphic" in2="BackgroundImageFix" result="shape"/>
<feColorMatrix in="SourceAlpha" type="matrix" values="0 0 0 0 0 0 0 0 0 0 0 0 0 0 0 0 0 0 127 0" result="hardAlpha"/>
<feOffset dx="24" dy="-12"/>
<feGaussianBlur stdDeviation="7"/>
<feComposite in2="hardAlpha" operator="arithmetic" k2="-1" k3="1"/>
<feColorMatrix type="matrix" values="0 0 0 0 0 0 0 0 0 0 0 0 0 0 0 0 0 0 1 0"/>
<feBlend mode="normal" in2="shape" result="effect1_innerShadow_11302_12336"/>
<feColorMatrix in="SourceAlpha" type="matrix" values="0 0 0 0 0 0 0 0 0 0 0 0 0 0 0 0 0 0 127 0" result="hardAlpha"/>
<feOffset dx="-24" dy="12"/>
<feGaussianBlur stdDeviation="7"/>
<feComposite in2="hardAlpha" operator="arithmetic" k2="-1" k3="1"/>
<feColorMatrix type="matrix" values="0 0 0 0 0 0 0 0 0 0 0 0 0 0 0 0 0 0 1 0"/>
<feBlend mode="normal" in2="effect1_innerShadow_11302_12336" result="effect2_innerShadow_11302_12336"/>
</filter>
<filter id="filter1_f_11302_12336" x="299.698" y="94" width="49.3021" height="15.7916" filterUnits="userSpaceOnUse" color-interpolation-filters="sRGB">
<feFlood flood-opacity="0" result="BackgroundImageFix"/>
<feBlend mode="normal" in="SourceGraphic" in2="BackgroundImageFix" result="shape"/>
<feGaussianBlur stdDeviation="1" result="effect1_foregroundBlur_11302_12336"/>
</filter>
<filter id="filter2_f_11302_12336" x="96" y="325.245" width="30.1288" height="33.2446" filterUnits="userSpaceOnUse" color-interpolation-filters="sRGB">
<feFlood flood-opacity="0" result="BackgroundImageFix"/>
<feBlend mode="normal" in="SourceGraphic" in2="BackgroundImageFix" result="shape"/>
<feGaussianBlur stdDeviation="1" result="effect1_foregroundBlur_11302_12336"/>
</filter>
<filter id="filter3_f_11302_12336" x="115" y="86" width="243.001" height="18.0002" filterUnits="userSpaceOnUse" color-interpolation-filters="sRGB">
<feFlood flood-opacity="0" result="BackgroundImageFix"/>
<feBlend mode="normal" in="SourceGraphic" in2="BackgroundImageFix" result="shape"/>
<feGaussianBlur stdDeviation="1" result="effect1_foregroundBlur_11302_12336"/>
</filter>
<filter id="filter4_f_11302_12336" x="348.997" y="352.389" width="14.2495" height="10.1108" filterUnits="userSpaceOnUse" color-interpolation-filters="sRGB">
<feFlood flood-opacity="0" result="BackgroundImageFix"/>
<feBlend mode="normal" in="SourceGraphic" in2="BackgroundImageFix" result="shape"/>
<feGaussianBlur stdDeviation="1" result="effect1_foregroundBlur_11302_12336"/>
</filter>
<filter id="filter5_f_11302_12336" x="353.598" y="112.524" width="19.9025" height="244.325" filterUnits="userSpaceOnUse" color-interpolation-filters="sRGB">
<feFlood flood-opacity="0" result="BackgroundImageFix"/>
<feBlend mode="normal" in="SourceGraphic" in2="BackgroundImageFix" result="shape"/>
<feGaussianBlur stdDeviation="1" result="effect1_foregroundBlur_11302_12336"/>
</filter>
<filter id="filter6_f_11302_12336" x="348.383" y="89.0204" width="25.9329" height="25.756" filterUnits="userSpaceOnUse" color-interpolation-filters="sRGB">
<feFlood flood-opacity="0" result="BackgroundImageFix"/>
<feBlend mode="normal" in="SourceGraphic" in2="BackgroundImageFix" result="shape"/>
<feGaussianBlur stdDeviation="1" result="effect1_foregroundBlur_11302_12336"/>
</filter>
<linearGradient id="paint0_linear_11302_12336" x1="474" y1="-7" x2="46" y2="463.5" gradientUnits="userSpaceOnUse">
<stop stop-color="#9C1F98"/>
<stop offset="1" stop-color="#560FA7"/>
</linearGradient>
<linearGradient id="paint1_linear_11302_12336" x1="345.5" y1="104.5" x2="297.5" y2="96" gradientUnits="userSpaceOnUse">
<stop stop-color="white"/>
<stop offset="1" stop-color="#D9D9D9" stop-opacity="0"/>
</linearGradient>
<linearGradient id="paint2_linear_11302_12336" x1="233.5" y1="89.5" x2="233.5" y2="101.5" gradientUnits="userSpaceOnUse">
<stop stop-color="white"/>
<stop offset="1" stop-color="white" stop-opacity="0"/>
</linearGradient>
<linearGradient id="paint3_linear_11302_12336" x1="339" y1="220" x2="372" y2="219.5" gradientUnits="userSpaceOnUse">
<stop offset="0.869792" stop-color="white" stop-opacity="0.4"/>
<stop offset="1" stop-color="white" stop-opacity="0.78"/>
</linearGradient>
<linearGradient id="paint4_linear_11302_12336" x1="205.178" y1="197.642" x2="273.736" y2="158.465" gradientUnits="userSpaceOnUse">
<stop stop-color="white"/>
<stop offset="1" stop-color="white" stop-opacity="0.53"/>
</linearGradient>
<clipPath id="clip0_11302_12336">
<rect width="294" height="294" fill="white" transform="translate(90 78)"/>
</clipPath>
</defs>
</svg>
