<svg width="1100" height="220" viewBox="0 0 1100 220" fill="none" xmlns="http://www.w3.org/2000/svg">
<g clip-path="url(#clip0_6655_15123)">
<rect width="1100" height="220" fill="white"/>
<g filter="url(#filter0_d_6655_15123)">
<path fill-rule="evenodd" clip-rule="evenodd" d="M-57.6378 -528.306C55.7688 -559.097 142.102 -430.417 238.913 -363.806C301.431 -320.79 355.917 -276.784 398.858 -214.214C455.694 -131.394 563.02 -43.2527 521.742 48.3207C480.119 140.662 330.607 84.1934 242.126 133.494C134.906 193.235 80.6529 404.631 -32.5345 357.156C-147.327 309.007 -35.2402 118.39 -75.0642 0.450699C-106.547 -92.7855 -235.978 -137.391 -232.736 -235.746C-228.844 -353.83 -171.658 -497.347 -57.6378 -528.306Z" fill="url(#paint0_linear_6655_15123)"/>
</g>
<g filter="url(#filter1_d_6655_15123)">
<path fill-rule="evenodd" clip-rule="evenodd" d="M286.785 795.384C191.795 752.747 204.967 616.081 176.082 516.048C157.428 451.448 144.833 390.684 150.58 323.69C158.187 235.017 134.198 114.325 213.935 74.7907C294.34 34.9252 365.027 157.627 453.343 173.578C560.365 192.907 716.325 78.5826 767.183 174.711C818.761 272.204 634.859 339.793 595.863 442.964C565.034 524.526 628.631 627.816 571.139 693.371C502.115 772.075 382.29 838.251 286.785 795.384Z" fill="url(#paint1_linear_6655_15123)"/>
</g>
<g filter="url(#filter2_d_6655_15123)">
<path fill-rule="evenodd" clip-rule="evenodd" d="M1024.43 -285.553C1104.76 -307.363 1165.91 -216.216 1234.48 -169.034C1278.77 -138.565 1317.36 -107.395 1347.78 -63.0745C1388.04 -4.41139 1464.06 58.021 1434.82 122.884C1405.34 188.292 1299.43 148.294 1236.76 183.214C1160.81 225.531 1122.39 375.267 1042.21 341.639C960.903 307.534 1040.3 172.516 1012.09 88.977C989.788 22.9357 898.11 -8.65921 900.406 -78.326C903.162 -161.968 943.668 -263.624 1024.43 -285.553Z" fill="url(#paint2_linear_6655_15123)"/>
</g>
<path d="M887.404 104.471C901.299 104.471 912.563 93.4471 912.563 79.8488C912.563 66.2506 901.299 55.2271 887.404 55.2271C873.509 55.2271 862.244 66.2506 862.244 79.8488C862.244 93.4471 873.509 104.471 887.404 104.471Z" fill="url(#paint3_linear_6655_15123)"/>
<path d="M888.016 116.507L921.713 149.477L953.044 118.733L953.72 118.07C953.72 118.07 953.724 118.064 953.726 118.06C954.074 117.594 954.278 117.049 954.278 116.472C954.278 115.846 954.043 115.261 953.642 114.776C953.428 114.571 953.21 114.373 952.993 114.182C934.77 97.7692 906.511 98.2601 888.887 115.651L888.016 116.509V116.507Z" fill="#0C1D37" fill-opacity="0.8"/>
<path d="M888.021 116.505L853.756 150.042L821.783 118.752L821.094 118.082C821.094 118.082 821.09 118.076 821.088 118.072C820.733 117.602 820.526 117.051 820.526 116.468C820.526 115.833 820.765 115.244 821.174 114.753C821.392 114.546 821.613 114.346 821.835 114.153C840.397 97.576 869.182 98.073 887.136 115.638L888.021 116.505Z" fill="#0C1D37"/>
<path d="M921.713 149.477L921.044 150.133C902.432 168.347 872.255 168.347 853.643 150.133L888.021 116.505L921.713 149.477Z" fill="#0C1D37"/>
</g>
<defs>
<filter id="filter0_d_6655_15123" x="-236.796" y="-532.987" width="771.763" height="905.03" filterUnits="userSpaceOnUse" color-interpolation-filters="sRGB">
<feFlood flood-opacity="0" result="BackgroundImageFix"/>
<feColorMatrix in="SourceAlpha" type="matrix" values="0 0 0 0 0 0 0 0 0 0 0 0 0 0 0 0 0 0 127 0" result="hardAlpha"/>
<feOffset dy="4"/>
<feGaussianBlur stdDeviation="2"/>
<feComposite in2="hardAlpha" operator="out"/>
<feColorMatrix type="matrix" values="0 0 0 0 0 0 0 0 0 0 0 0 0 0 0 0 0 0 0.25 0"/>
<feBlend mode="normal" in2="BackgroundImageFix" result="effect1_dropShadow_6655_15123"/>
<feBlend mode="normal" in="SourceGraphic" in2="effect1_dropShadow_6655_15123" result="shape"/>
</filter>
<filter id="filter1_d_6655_15123" x="145.178" y="66.8662" width="635.058" height="750.006" filterUnits="userSpaceOnUse" color-interpolation-filters="sRGB">
<feFlood flood-opacity="0" result="BackgroundImageFix"/>
<feColorMatrix in="SourceAlpha" type="matrix" values="0 0 0 0 0 0 0 0 0 0 0 0 0 0 0 0 0 0 127 0" result="hardAlpha"/>
<feOffset dy="4"/>
<feGaussianBlur stdDeviation="2"/>
<feComposite in2="hardAlpha" operator="out"/>
<feColorMatrix type="matrix" values="0 0 0 0 0 0 0 0 0 0 0 0 0 0 0 0 0 0 0.25 0"/>
<feBlend mode="normal" in2="BackgroundImageFix" result="effect1_dropShadow_6655_15123"/>
<feBlend mode="normal" in="SourceGraphic" in2="effect1_dropShadow_6655_15123" result="shape"/>
</filter>
<filter id="filter2_d_6655_15123" x="896.363" y="-288.869" width="548.99" height="643.386" filterUnits="userSpaceOnUse" color-interpolation-filters="sRGB">
<feFlood flood-opacity="0" result="BackgroundImageFix"/>
<feColorMatrix in="SourceAlpha" type="matrix" values="0 0 0 0 0 0 0 0 0 0 0 0 0 0 0 0 0 0 127 0" result="hardAlpha"/>
<feOffset dy="4"/>
<feGaussianBlur stdDeviation="2"/>
<feComposite in2="hardAlpha" operator="out"/>
<feColorMatrix type="matrix" values="0 0 0 0 0 0 0 0 0 0 0 0 0 0 0 0 0 0 0.25 0"/>
<feBlend mode="normal" in2="BackgroundImageFix" result="effect1_dropShadow_6655_15123"/>
<feBlend mode="normal" in="SourceGraphic" in2="effect1_dropShadow_6655_15123" result="shape"/>
</filter>
<linearGradient id="paint0_linear_6655_15123" x1="-76.0568" y1="-522.345" x2="272.694" y2="247.604" gradientUnits="userSpaceOnUse">
<stop stop-color="#5C11A7"/>
<stop offset="1" stop-color="#991F99"/>
</linearGradient>
<linearGradient id="paint1_linear_6655_15123" x1="302.752" y1="801.652" x2="496.529" y2="78.231" gradientUnits="userSpaceOnUse">
<stop stop-color="#961F9A"/>
<stop offset="1" stop-color="#5E12A6"/>
</linearGradient>
<linearGradient id="paint2_linear_6655_15123" x1="1011.38" y1="-281.331" x2="1258.41" y2="264.041" gradientUnits="userSpaceOnUse">
<stop stop-color="#9A1F99"/>
<stop offset="1" stop-color="#5D12A6"/>
</linearGradient>
<linearGradient id="paint3_linear_6655_15123" x1="864.897" y1="93.997" x2="908.79" y2="68.3673" gradientUnits="userSpaceOnUse">
<stop stop-color="#0C1D37"/>
<stop offset="1" stop-color="#0C1D37" stop-opacity="0.53"/>
</linearGradient>
<clipPath id="clip0_6655_15123">
<rect width="1100" height="220" fill="white"/>
</clipPath>
</defs>
</svg>
