<svg width="227" height="65" viewBox="0 0 227 65" fill="none" xmlns="http://www.w3.org/2000/svg">
<rect x="3.5" y="5.5" width="49" height="59" rx="5.5" fill="#EEEBE4" stroke="#0C1D37"/>
<rect x="0.5" y="0.5" width="49" height="59" rx="5.5" fill="#EEEBE4" stroke="#0C1D37"/>
<line x1="47.4287" y1="57.7428" x2="50.4287" y2="62.7428" stroke="#0C1D37"/>
<line x1="48.4287" y1="2.74275" x2="51.4287" y2="7.74275" stroke="#0C1D37"/>
<path d="M23.84 44.4C21.36 44.4 19.28 44.04 17.6 43.32C15.9467 42.5733 14.68 41.6133 13.8 40.44C12.9467 39.24 12.4933 37.9867 12.44 36.68C12.44 36.44 12.52 36.24 12.68 36.08C12.84 35.92 13.04 35.84 13.28 35.84H16.84C17.1867 35.84 17.44 35.92 17.6 36.08C17.7867 36.2133 17.9467 36.3867 18.08 36.6C18.24 37.1067 18.5467 37.6133 19 38.12C19.4533 38.6 20.0667 39 20.84 39.32C21.64 39.64 22.64 39.8 23.84 39.8C25.76 39.8 27.1867 39.48 28.12 38.84C29.08 38.2 29.56 37.3333 29.56 36.24C29.56 35.4667 29.3067 34.8533 28.8 34.4C28.2933 33.92 27.5067 33.4933 26.44 33.12C25.4 32.72 24.0133 32.3067 22.28 31.88C20.28 31.4 18.6 30.8267 17.24 30.16C15.9067 29.4667 14.8933 28.6 14.2 27.56C13.5333 26.52 13.2 25.2 13.2 23.6C13.2 22.0533 13.6133 20.68 14.44 19.48C15.2933 18.28 16.4933 17.3333 18.04 16.64C19.6133 15.9467 21.48 15.6 23.64 15.6C25.3733 15.6 26.9067 15.84 28.24 16.32C29.5733 16.7733 30.68 17.3867 31.56 18.16C32.44 18.9067 33.1067 19.72 33.56 20.6C34.04 21.4533 34.2933 22.2933 34.32 23.12C34.32 23.3333 34.24 23.5333 34.08 23.72C33.9467 23.88 33.7467 23.96 33.48 23.96H29.76C29.5467 23.96 29.3333 23.9067 29.12 23.8C28.9067 23.6933 28.7333 23.4933 28.6 23.2C28.44 22.3733 27.92 21.6667 27.04 21.08C26.16 20.4933 25.0267 20.2 23.64 20.2C22.2 20.2 21.04 20.4667 20.16 21C19.28 21.5333 18.84 22.36 18.84 23.48C18.84 24.2267 19.0533 24.8533 19.48 25.36C19.9333 25.84 20.64 26.2667 21.6 26.64C22.5867 27.0133 23.88 27.4133 25.48 27.84C27.7467 28.3467 29.6 28.9333 31.04 29.6C32.48 30.2667 33.5333 31.12 34.2 32.16C34.8667 33.1733 35.2 34.4667 35.2 36.04C35.2 37.8 34.72 39.3067 33.76 40.56C32.8267 41.7867 31.5067 42.7333 29.8 43.4C28.0933 44.0667 26.1067 44.4 23.84 44.4Z" fill="#0C1D37"/>
<rect x="61.5" y="5.5" width="49" height="59" rx="5.5" fill="#EEEBE4" stroke="#0C1D37"/>
<rect x="58.5" y="0.5" width="49" height="59" rx="5.5" fill="#EEEBE4" stroke="#0C1D37"/>
<line x1="105.429" y1="57.7428" x2="108.429" y2="62.7428" stroke="#0C1D37"/>
<line x1="106.429" y1="2.74275" x2="109.429" y2="7.74275" stroke="#0C1D37"/>
<path d="M73.08 44C72.8133 44 72.5867 43.9067 72.4 43.72C72.2133 43.5333 72.12 43.3067 72.12 43.04V17C72.12 16.7067 72.2133 16.4667 72.4 16.28C72.5867 16.0933 72.8133 16 73.08 16H82.84C85.5333 16 87.7467 16.4133 89.48 17.24C91.24 18.0667 92.56 19.2933 93.44 20.92C94.3467 22.5467 94.8133 24.5333 94.84 26.88C94.8933 28.0533 94.92 29.0933 94.92 30C94.92 30.9067 94.8933 31.9333 94.84 33.08C94.7867 35.56 94.3333 37.6133 93.48 39.24C92.6267 40.84 91.3333 42.04 89.6 42.84C87.8933 43.6133 85.7067 44 83.04 44H73.08ZM77.68 39.4H82.84C84.3333 39.4 85.5467 39.1867 86.48 38.76C87.4133 38.3333 88.0933 37.6533 88.52 36.72C88.9733 35.76 89.2133 34.5067 89.24 32.96C89.2667 32.16 89.28 31.4667 89.28 30.88C89.3067 30.2667 89.3067 29.6667 89.28 29.08C89.28 28.4667 89.2667 27.7733 89.24 27C89.1867 24.8133 88.64 23.2 87.6 22.16C86.56 21.12 84.9067 20.6 82.64 20.6H77.68V39.4Z" fill="#0C1D37"/>
<rect x="119.5" y="5.5" width="49" height="59" rx="5.5" fill="#EEEBE4" stroke="#0C1D37"/>
<rect x="116.5" y="0.5" width="49" height="59" rx="5.5" fill="#EEEBE4" stroke="#0C1D37"/>
<line x1="163.429" y1="57.7428" x2="166.429" y2="62.7428" stroke="#0C1D37"/>
<line x1="164.429" y1="2.74275" x2="167.429" y2="7.74275" stroke="#0C1D37"/>
<path d="M131.08 44C130.813 44 130.587 43.9067 130.4 43.72C130.213 43.5333 130.12 43.3067 130.12 43.04V17C130.12 16.7067 130.213 16.4667 130.4 16.28C130.587 16.0933 130.813 16 131.08 16H148.44C148.733 16 148.973 16.0933 149.16 16.28C149.347 16.4667 149.44 16.7067 149.44 17V19.8C149.44 20.0933 149.347 20.3333 149.16 20.52C148.973 20.68 148.733 20.76 148.44 20.76H135.6V28.36H147.64C147.933 28.36 148.173 28.4533 148.36 28.64C148.547 28.8267 148.64 29.0667 148.64 29.36V32.16C148.64 32.4267 148.547 32.6533 148.36 32.84C148.173 33.0267 147.933 33.12 147.64 33.12H135.6V43.04C135.6 43.3067 135.507 43.5333 135.32 43.72C135.133 43.9067 134.893 44 134.6 44H131.08Z" fill="#0C1D37"/>
<rect x="177.5" y="5.5" width="49" height="59" rx="5.5" fill="#EEEBE4" stroke="#0C1D37"/>
<rect x="174.5" y="0.5" width="49" height="59" rx="5.5" fill="#EEEBE4" stroke="#0C1D37"/>
<line x1="221.429" y1="57.7428" x2="224.429" y2="62.7428" stroke="#0C1D37"/>
<line x1="222.429" y1="2.74275" x2="225.429" y2="7.74275" stroke="#0C1D37"/>
<path d="M211.5 25V32" stroke="#0C1D37" stroke-width="2" stroke-linecap="round"/>
<path d="M193 28.5V35.5" stroke="#0C1D37" stroke-width="2" stroke-linecap="round"/>
<path d="M187 31.5L193 35.5" stroke="#0C1D37" stroke-width="2" stroke-linecap="round"/>
<path d="M187 31.5L193 28.5" stroke="#0C1D37" stroke-width="2" stroke-linecap="round"/>
<path d="M193 32L211 32" stroke="#0C1D37" stroke-width="2" stroke-linecap="round"/>
</svg>
