<svg width="1820" height="1456" viewBox="0 0 1820 1456" fill="none" xmlns="http://www.w3.org/2000/svg">
<rect width="1820" height="1456" rx="25" fill="white"/>
<path d="M115.136 93.48C112.096 93.48 109.488 92.984 107.312 91.992C105.168 91 103.488 89.544 102.272 87.624C101.088 85.704 100.432 83.32 100.304 80.472C100.272 79.16 100.256 77.752 100.256 76.248C100.256 74.744 100.272 73.304 100.304 71.928C100.432 69.144 101.104 66.792 102.32 64.872C103.536 62.92 105.232 61.448 107.408 60.456C109.584 59.432 112.16 58.92 115.136 58.92C117.248 58.92 119.2 59.192 120.992 59.736C122.784 60.248 124.352 61.016 125.696 62.04C127.04 63.032 128.08 64.248 128.816 65.688C129.584 67.096 129.984 68.696 130.016 70.488C130.048 70.776 129.952 71.016 129.728 71.208C129.536 71.4 129.296 71.496 129.008 71.496H122.528C122.112 71.496 121.792 71.416 121.568 71.256C121.344 71.064 121.152 70.728 120.992 70.248C120.544 68.552 119.808 67.4 118.784 66.792C117.792 66.152 116.56 65.832 115.088 65.832C113.328 65.832 111.936 66.328 110.912 67.32C109.888 68.28 109.328 69.896 109.232 72.168C109.136 74.792 109.136 77.48 109.232 80.232C109.328 82.504 109.888 84.136 110.912 85.128C111.936 86.088 113.328 86.568 115.088 86.568C116.56 86.568 117.808 86.248 118.832 85.608C119.856 84.968 120.576 83.816 120.992 82.152C121.12 81.672 121.296 81.352 121.52 81.192C121.776 81 122.112 80.904 122.528 80.904H129.008C129.296 80.904 129.536 81 129.728 81.192C129.952 81.384 130.048 81.624 130.016 81.912C129.984 83.704 129.584 85.32 128.816 86.76C128.08 88.168 127.04 89.384 125.696 90.408C124.352 91.4 122.784 92.168 120.992 92.712C119.2 93.224 117.248 93.48 115.136 93.48ZM146.343 93.48C143.655 93.48 141.383 93.048 139.527 92.184C137.703 91.32 136.295 90.088 135.303 88.488C134.343 86.856 133.799 84.92 133.671 82.68C133.639 82.04 133.623 81.32 133.623 80.52C133.623 79.688 133.639 78.968 133.671 78.36C133.799 76.088 134.375 74.152 135.399 72.552C136.423 70.952 137.847 69.72 139.671 68.856C141.527 67.992 143.751 67.56 146.343 67.56C148.967 67.56 151.191 67.992 153.015 68.856C154.871 69.72 156.311 70.952 157.335 72.552C158.359 74.152 158.935 76.088 159.063 78.36C159.095 78.968 159.111 79.688 159.111 80.52C159.111 81.32 159.095 82.04 159.063 82.68C158.935 84.92 158.375 86.856 157.383 88.488C156.423 90.088 155.015 91.32 153.159 92.184C151.335 93.048 149.063 93.48 146.343 93.48ZM146.343 87.624C147.783 87.624 148.823 87.192 149.463 86.328C150.135 85.464 150.519 84.168 150.615 82.44C150.647 81.96 150.663 81.32 150.663 80.52C150.663 79.72 150.647 79.08 150.615 78.6C150.519 76.904 150.135 75.624 149.463 74.76C148.823 73.864 147.783 73.416 146.343 73.416C144.935 73.416 143.895 73.864 143.223 74.76C142.551 75.624 142.183 76.904 142.119 78.6C142.087 79.08 142.071 79.72 142.071 80.52C142.071 81.32 142.087 81.96 142.119 82.44C142.183 84.168 142.551 85.464 143.223 86.328C143.895 87.192 144.935 87.624 146.343 87.624ZM165.032 93C164.68 93 164.392 92.888 164.168 92.664C163.944 92.44 163.832 92.152 163.832 91.8V60.12C163.832 59.768 163.944 59.48 164.168 59.256C164.392 59.032 164.68 58.92 165.032 58.92H170.696C171.048 58.92 171.336 59.032 171.56 59.256C171.784 59.48 171.896 59.768 171.896 60.12V91.8C171.896 92.152 171.784 92.44 171.56 92.664C171.336 92.888 171.048 93 170.696 93H165.032ZM189.374 93.48C186.686 93.48 184.414 93.048 182.558 92.184C180.734 91.32 179.326 90.088 178.334 88.488C177.374 86.856 176.83 84.92 176.702 82.68C176.67 82.04 176.654 81.32 176.654 80.52C176.654 79.688 176.67 78.968 176.702 78.36C176.83 76.088 177.406 74.152 178.43 72.552C179.454 70.952 180.878 69.72 182.702 68.856C184.558 67.992 186.782 67.56 189.374 67.56C191.998 67.56 194.222 67.992 196.046 68.856C197.902 69.72 199.342 70.952 200.366 72.552C201.39 74.152 201.966 76.088 202.094 78.36C202.126 78.968 202.142 79.688 202.142 80.52C202.142 81.32 202.126 82.04 202.094 82.68C201.966 84.92 201.406 86.856 200.414 88.488C199.454 90.088 198.046 91.32 196.19 92.184C194.366 93.048 192.094 93.48 189.374 93.48ZM189.374 87.624C190.814 87.624 191.854 87.192 192.494 86.328C193.166 85.464 193.55 84.168 193.646 82.44C193.678 81.96 193.694 81.32 193.694 80.52C193.694 79.72 193.678 79.08 193.646 78.6C193.55 76.904 193.166 75.624 192.494 74.76C191.854 73.864 190.814 73.416 189.374 73.416C187.966 73.416 186.926 73.864 186.254 74.76C185.582 75.624 185.214 76.904 185.15 78.6C185.118 79.08 185.102 79.72 185.102 80.52C185.102 81.32 185.118 81.96 185.15 82.44C185.214 84.168 185.582 85.464 186.254 86.328C186.926 87.192 187.966 87.624 189.374 87.624ZM208.063 93C207.711 93 207.423 92.888 207.199 92.664C206.975 92.44 206.863 92.152 206.863 91.8V69.24C206.863 68.92 206.975 68.648 207.199 68.424C207.423 68.168 207.711 68.04 208.063 68.04H213.583C213.935 68.04 214.223 68.168 214.447 68.424C214.671 68.648 214.783 68.92 214.783 69.24V71.16C215.647 70.168 216.671 69.4 217.855 68.856C219.071 68.312 220.431 68.04 221.935 68.04H224.047C224.367 68.04 224.639 68.152 224.863 68.376C225.119 68.6 225.247 68.888 225.247 69.24V74.184C225.247 74.504 225.119 74.792 224.863 75.048C224.639 75.272 224.367 75.384 224.047 75.384H219.391C218.079 75.384 217.055 75.752 216.319 76.488C215.615 77.192 215.263 78.2 215.263 79.512V91.8C215.263 92.152 215.135 92.44 214.879 92.664C214.655 92.888 214.367 93 214.015 93H208.063ZM238.932 93.48C236.852 93.48 235.076 93.256 233.604 92.808C232.164 92.328 230.98 91.752 230.052 91.08C229.156 90.408 228.484 89.72 228.036 89.016C227.588 88.28 227.348 87.656 227.316 87.144C227.284 86.792 227.396 86.504 227.652 86.28C227.908 86.024 228.18 85.896 228.468 85.896H233.94C234.036 85.896 234.116 85.912 234.18 85.944C234.244 85.976 234.34 86.04 234.468 86.136C234.884 86.36 235.3 86.648 235.716 87C236.132 87.32 236.612 87.608 237.156 87.864C237.7 88.12 238.356 88.248 239.124 88.248C240.02 88.248 240.772 88.072 241.38 87.72C241.988 87.368 242.292 86.84 242.292 86.136C242.292 85.624 242.148 85.208 241.86 84.888C241.572 84.536 240.98 84.2 240.084 83.88C239.22 83.56 237.908 83.24 236.148 82.92C234.484 82.536 233.028 82.04 231.78 81.432C230.532 80.792 229.572 79.976 228.9 78.984C228.228 77.96 227.892 76.728 227.892 75.288C227.892 74.008 228.308 72.776 229.14 71.592C229.972 70.408 231.188 69.448 232.788 68.712C234.388 67.944 236.356 67.56 238.692 67.56C240.548 67.56 242.148 67.784 243.492 68.232C244.868 68.648 246.02 69.192 246.948 69.864C247.908 70.536 248.628 71.224 249.108 71.928C249.588 72.632 249.844 73.272 249.876 73.848C249.908 74.168 249.812 74.456 249.588 74.712C249.364 74.936 249.108 75.048 248.82 75.048H243.828C243.7 75.048 243.572 75.032 243.444 75C243.316 74.936 243.204 74.872 243.108 74.808C242.724 74.616 242.34 74.36 241.956 74.04C241.572 73.72 241.124 73.432 240.612 73.176C240.1 72.92 239.46 72.792 238.692 72.792C237.828 72.792 237.156 72.984 236.676 73.368C236.196 73.752 235.956 74.248 235.956 74.856C235.956 75.272 236.084 75.656 236.34 76.008C236.628 76.36 237.188 76.68 238.02 76.968C238.884 77.256 240.212 77.576 242.004 77.928C244.212 78.28 245.972 78.856 247.284 79.656C248.596 80.424 249.524 81.336 250.068 82.392C250.612 83.416 250.884 84.504 250.884 85.656C250.884 87.192 250.42 88.552 249.492 89.736C248.596 90.92 247.252 91.848 245.46 92.52C243.668 93.16 241.492 93.48 238.932 93.48ZM266.514 82.056C266.162 82.056 265.874 81.944 265.65 81.72C265.426 81.496 265.314 81.208 265.314 80.856V76.344C265.314 75.992 265.426 75.704 265.65 75.48C265.874 75.256 266.162 75.144 266.514 75.144H281.538C281.89 75.144 282.178 75.256 282.402 75.48C282.626 75.704 282.738 75.992 282.738 76.344V80.856C282.738 81.208 282.626 81.496 282.402 81.72C282.178 81.944 281.89 82.056 281.538 82.056H266.514ZM300.232 93C299.912 93 299.624 92.888 299.368 92.664C299.144 92.44 299.032 92.152 299.032 91.8V60.6C299.032 60.248 299.144 59.96 299.368 59.736C299.624 59.512 299.912 59.4 300.232 59.4H305.416C305.928 59.4 306.312 59.544 306.568 59.832C306.856 60.088 307.032 60.296 307.096 60.456L315.544 75.624L323.992 60.456C324.088 60.296 324.248 60.088 324.472 59.832C324.728 59.544 325.128 59.4 325.672 59.4H330.808C331.16 59.4 331.448 59.512 331.672 59.736C331.928 59.96 332.056 60.248 332.056 60.6V91.8C332.056 92.152 331.928 92.44 331.672 92.664C331.448 92.888 331.16 93 330.808 93H325.096C324.744 93 324.44 92.888 324.184 92.664C323.96 92.44 323.848 92.152 323.848 91.8V73.8L318.424 83.832C318.296 84.12 318.104 84.376 317.848 84.6C317.592 84.824 317.24 84.936 316.792 84.936H314.296C313.848 84.936 313.496 84.824 313.24 84.6C312.984 84.376 312.776 84.12 312.616 83.832L307.192 73.8V91.8C307.192 92.152 307.08 92.44 306.856 92.664C306.632 92.888 306.344 93 305.992 93H300.232ZM345.695 93.48C343.967 93.48 342.415 93.16 341.039 92.52C339.695 91.848 338.623 90.952 337.823 89.832C337.023 88.712 336.623 87.448 336.623 86.04C336.623 83.768 337.551 81.976 339.407 80.664C341.263 79.32 343.727 78.408 346.799 77.928L352.799 77.016V76.344C352.799 75.192 352.559 74.312 352.079 73.704C351.599 73.096 350.719 72.792 349.439 72.792C348.543 72.792 347.807 72.968 347.231 73.32C346.687 73.672 346.255 74.152 345.935 74.76C345.647 75.176 345.247 75.384 344.735 75.384H339.359C339.007 75.384 338.735 75.288 338.543 75.096C338.351 74.872 338.271 74.616 338.303 74.328C338.303 73.752 338.511 73.096 338.927 72.36C339.375 71.592 340.047 70.84 340.943 70.104C341.839 69.368 342.991 68.76 344.399 68.28C345.807 67.8 347.503 67.56 349.487 67.56C351.567 67.56 353.343 67.8 354.815 68.28C356.287 68.76 357.471 69.432 358.367 70.296C359.295 71.16 359.983 72.184 360.431 73.368C360.879 74.52 361.103 75.8 361.103 77.208V91.8C361.103 92.152 360.975 92.44 360.719 92.664C360.495 92.888 360.223 93 359.903 93H354.335C353.983 93 353.695 92.888 353.471 92.664C353.247 92.44 353.135 92.152 353.135 91.8V90.12C352.719 90.728 352.159 91.288 351.455 91.8C350.751 92.312 349.919 92.712 348.959 93C348.031 93.32 346.943 93.48 345.695 93.48ZM347.951 88.008C348.879 88.008 349.711 87.816 350.447 87.432C351.215 87.016 351.807 86.392 352.223 85.56C352.671 84.696 352.895 83.624 352.895 82.344V81.672L348.815 82.392C347.311 82.648 346.207 83.048 345.503 83.592C344.831 84.104 344.495 84.712 344.495 85.416C344.495 85.96 344.655 86.424 344.975 86.808C345.295 87.192 345.711 87.496 346.223 87.72C346.735 87.912 347.311 88.008 347.951 88.008ZM367.72 93C367.368 93 367.08 92.888 366.855 92.664C366.632 92.44 366.52 92.152 366.52 91.8V69.24C366.52 68.888 366.632 68.6 366.855 68.376C367.08 68.152 367.368 68.04 367.72 68.04H373.384C373.704 68.04 373.976 68.152 374.2 68.376C374.456 68.6 374.584 68.888 374.584 69.24V91.8C374.584 92.152 374.456 92.44 374.2 92.664C373.976 92.888 373.704 93 373.384 93H367.72ZM367.672 64.44C367.32 64.44 367.032 64.328 366.808 64.104C366.584 63.88 366.472 63.592 366.472 63.24V58.968C366.472 58.616 366.584 58.328 366.808 58.104C367.032 57.848 367.32 57.72 367.672 57.72H373.384C373.736 57.72 374.024 57.848 374.248 58.104C374.504 58.328 374.632 58.616 374.632 58.968V63.24C374.632 63.592 374.504 63.88 374.248 64.104C374.024 64.328 373.736 64.44 373.384 64.44H367.672ZM381.407 93C381.055 93 380.767 92.888 380.543 92.664C380.319 92.44 380.207 92.152 380.207 91.8V69.24C380.207 68.888 380.319 68.6 380.543 68.376C380.767 68.152 381.055 68.04 381.407 68.04H386.927C387.279 68.04 387.567 68.152 387.791 68.376C388.015 68.6 388.127 68.888 388.127 69.24V71.064C388.959 70.072 390.047 69.24 391.391 68.568C392.735 67.896 394.319 67.56 396.143 67.56C397.999 67.56 399.631 67.976 401.039 68.808C402.479 69.64 403.599 70.872 404.399 72.504C405.231 74.104 405.647 76.072 405.647 78.408V91.8C405.647 92.152 405.519 92.44 405.263 92.664C405.039 92.888 404.767 93 404.447 93H398.399C398.079 93 397.791 92.888 397.535 92.664C397.311 92.44 397.199 92.152 397.199 91.8V78.696C397.199 77.192 396.831 76.04 396.095 75.24C395.391 74.408 394.335 73.992 392.927 73.992C391.615 73.992 390.559 74.408 389.759 75.24C388.991 76.04 388.607 77.192 388.607 78.696V91.8C388.607 92.152 388.479 92.44 388.223 92.664C387.999 92.888 387.727 93 387.407 93H381.407Z" fill="#070707" fill-opacity="0.9"/>
</svg>
